# xmcd
#
# Track frame offsets:
#	150
#	27581
#	53056
#	70647
#	101546
#	126709
#	158592
#	178061
#	198526
#	219363
#
# Disc length: 3262 seconds
#
# Revision: 2185949867
# Processed by: cddbd v1.5.2PL0 Copyright (c) Steve Scherf et al.
# Submitted via: EZCDAudioConverter 8.0.2.1
#
DISCID=8e0cbc0a
DTITLE=Hồng Nhung - Vol 04. Ru Tình
DYEAR=2000
DGENRE=World Pop
TTITLE0=Em hãy ngủ đi
TTITLE1=Biết em còn chút dỗi hờn
TTITLE2=Khúc chia xa
TTITLE3=Một mình
TTITLE4=Trái tim hoang vu
TTITLE5=Ru Tình
TTITLE6=Giấc mơ xa vời
TTITLE7=Chiếc lá vô tình
TTITLE8=Dấu vết
TTITLE9=Khúc mưa
EXTD=
EXTT0=
EXTT1=
EXTT2=
EXTT3=
EXTT4=
EXTT5=
EXTT6=
EXTT7=
EXTT8=
EXTT9=
PLAYORDER=
